<svg id="Flat" height="64px" viewBox="0 0 32 32" width="64px" xmlns="http://www.w3.org/2000/svg"><circle cx="12" cy="7" fill="#fff" r="6"/><path d="m12 14a7 7 0 1 1 7-7 7.0081 7.0081 0 0 1 -7 7zm0-12a5 5 0 1 0 5 5 5.0059 5.0059 0 0 0 -5-5z" fill="#ff6e69"/><path d="m15 8h-4v-4h2v2h2z" fill="#4e5775"/><path d="m15 17h4v14h-4z" fill="#ff947e"/><path d="m17 19h2v12h-2z" fill="#ff6e69"/><path d="m7 23h4v8h-4z" fill="#ffcf77"/><path d="m9 25h2v6h-2z" fill="#ffb560"/><path d="m23 11h4v20h-4z" fill="#afeb7f"/><path d="m25 13h2v18h-2z" fill="#a2e36a"/><path d="m31 32h-31v-31h2v29h29z" fill="#4e5775"/></svg>