<svg id="Layer_1" enable-background="new 0 0 512 512" height="64" viewBox="0 0 512 512" width="64" xmlns="http://www.w3.org/2000/svg"><path clip-rule="evenodd" d="m231.952 101.415c85.377 0 154.588 69.211 154.588 154.59 0 9.09-.791 17.992-2.297 26.652-13.094 5.176-24.857 12.99-34.637 22.785 6.398-15.203 9.934-31.908 9.934-49.438 0-70.465-57.125-127.59-127.588-127.59s-127.588 57.125-127.588 127.59c0 70.463 57.125 127.588 127.588 127.588 35.232 0 67.129-14.281 90.219-37.369 1.354-1.354 2.674-2.738 3.965-4.15-4.068 11.002-6.291 22.896-6.291 35.311 0 1.906.055 3.801.16 5.684-24.988 17.348-55.328 27.525-88.053 27.525-85.377 0-154.588-69.213-154.588-154.588 0-85.379 69.211-154.59 154.588-154.59zm189.717 192.141c-46.295 0-83.824 37.531-83.824 83.828 0 46.295 37.529 83.826 83.824 83.826 46.297 0 83.828-37.531 83.828-83.826 0-46.297-37.531-83.828-83.828-83.828zm-74.18-259.641-38.605 12.289c-5.186 1.645-7.703 7.475-5.398 12.367l17.273 36.648c2.115 4.484 7.467 6.406 11.953 4.289 4.484-2.117 6.404-7.469 4.289-11.953l-6.73-14.26c73.711 39.557 116.592 120.283 108.086 203.631 6.051.998 11.92 2.525 17.559 4.539 10.584-92.523-37.063-182.215-119.469-225.227l16.457-5.238c4.717-1.496 7.33-6.531 5.836-11.25-1.497-4.718-6.534-7.331-11.251-5.835zm1.461 414.736c-4.232-4.32-8.086-9.014-11.504-14.029-47.18 27.895-101.191 34.994-151.072 23.762-111.779-25.172-181.978-136.188-156.809-247.965 17.781-78.961 79.811-140.27 158.605-157.246 24.094-5.189 48.686-5.969 72.619-2.598 4.91.678 9.445-2.754 10.123-7.664.68-4.914-2.752-9.445-7.662-10.125-25.992-3.66-52.68-2.818-78.807 2.811-85.63 18.447-153.059 85.072-172.383 170.884-27.352 121.449 48.928 242.059 170.377 269.41 55.044 12.395 114.712 4.251 166.513-27.24zm104.461-109.496-49.656 49.656-16.947-21.324c-4.168-5.244-11.799-6.115-17.041-1.947-5.244 4.168-6.115 11.799-1.945 17.043l24.936 31.379c4.313 6.18 13.191 7.023 18.564 1.648l59.273-59.27c4.744-4.746 4.744-12.441 0-17.186-4.746-4.743-12.44-4.743-17.184.001zm-212.459-95.847v-72.262c0-4.971-4.029-9-9-9s-9 4.029-9 9v82.115l-48.719 28.129c-4.291 2.465-5.771 7.943-3.305 12.234 2.467 4.289 7.943 5.77 12.234 3.305l40.246-23.236c1.189 3.58 4.564 6.162 8.543 6.162 4.971 0 9-4.031 9-9v-7.291l6.238-3.602c4.291-2.467 5.771-7.943 3.305-12.234-1.97-3.43-5.866-5.065-9.542-4.32zm-9-96.893c-60.525 0-109.588 49.063-109.588 109.59 0 60.525 49.063 109.588 109.588 109.588 30.264 0 57.662-12.266 77.492-32.096 19.83-19.832 32.096-47.23 32.096-77.492 0-60.527-49.062-109.59-109.588-109.59z" fill="#1980f2" fill-rule="evenodd"/></svg>